<svg id="Layer_1" data-name="Layer 1" xmlns="http://www.w3.org/2000/svg" viewBox="0 0 210.22 51.59"><defs><style>.cls-1{fill:#002d62;}.cls-2{fill:#6caddf;}.cls-3{fill:#ee3124;}</style></defs><title>BeeckCenter_logo-ART-fullcolor</title><path class="cls-1" d="M5.92,0V9.7H6A6.72,6.72,0,0,1,8.13,7.64,5.59,5.59,0,0,1,11,7a5.81,5.81,0,0,1,5.37,2.85q1.72,2.86,1.72,9.29t-1.72,9.23A5.85,5.85,0,0,1,11,31.12a6.44,6.44,0,0,1-3-.64A5.93,5.93,0,0,1,5.75,28.2H5.67v2.45H0V0H5.92ZM6.5,24.79A2.45,2.45,0,0,0,9.06,26.7a2.42,2.42,0,0,0,2.51-1.91,20.89,20.89,0,0,0,.58-5.69,20.9,20.9,0,0,0-.58-5.69,2.42,2.42,0,0,0-2.51-1.91A2.45,2.45,0,0,0,6.5,13.42a20.9,20.9,0,0,0-.58,5.69A20.89,20.89,0,0,0,6.5,24.79Z"/><path class="cls-1" d="M26.53,21.85a13.06,13.06,0,0,0,.15,2,6.6,6.6,0,0,0,.49,1.72,3.23,3.23,0,0,0,.9,1.2,2.11,2.11,0,0,0,1.37.45,2.41,2.41,0,0,0,2.19-1.07,7.93,7.93,0,0,0,.95-3.26h5.32A9.26,9.26,0,0,1,35.76,29q-2,2.1-6.22,2.1a9.85,9.85,0,0,1-5-1.07,6.66,6.66,0,0,1-2.66-2.83,11.13,11.13,0,0,1-1.05-3.95q-0.19-2.19-.19-4.38a30.07,30.07,0,0,1,.32-4.46,10.8,10.8,0,0,1,1.29-3.82A7,7,0,0,1,25,7.94a10,10,0,0,1,4.81-1A9.34,9.34,0,0,1,34,7.79a6.39,6.39,0,0,1,2.6,2.36,9.89,9.89,0,0,1,1.29,3.69,31.09,31.09,0,0,1,.34,4.83V20H26.53v1.85Zm5.88-7.71A6,6,0,0,0,32,12.43a2.4,2.4,0,0,0-.9-1.07A2.73,2.73,0,0,0,29.58,11a2.52,2.52,0,0,0-1.48.41,2.93,2.93,0,0,0-.92,1.07A5.37,5.37,0,0,0,26.68,14a9,9,0,0,0-.15,1.63v0.9h6.05Q32.54,15.15,32.41,14.15Z"/><path class="cls-1" d="M47.26,21.85a13.06,13.06,0,0,0,.15,2,6.59,6.59,0,0,0,.49,1.72,3.23,3.23,0,0,0,.9,1.2,2.11,2.11,0,0,0,1.37.45,2.41,2.41,0,0,0,2.19-1.07,7.93,7.93,0,0,0,.95-3.26h5.32A9.26,9.26,0,0,1,56.49,29q-2,2.1-6.22,2.1a9.85,9.85,0,0,1-5-1.07,6.66,6.66,0,0,1-2.66-2.83,11.13,11.13,0,0,1-1.05-3.95q-0.19-2.19-.19-4.38a30.07,30.07,0,0,1,.32-4.46,10.8,10.8,0,0,1,1.29-3.82,7,7,0,0,1,2.77-2.66,10,10,0,0,1,4.81-1,9.34,9.34,0,0,1,4.23.84,6.39,6.39,0,0,1,2.6,2.36,9.89,9.89,0,0,1,1.29,3.69A31.07,31.07,0,0,1,59,18.67V20H47.26v1.85Zm5.88-7.71a6,6,0,0,0-.45-1.72,2.4,2.4,0,0,0-.9-1.07A2.73,2.73,0,0,0,50.31,11a2.52,2.52,0,0,0-1.48.41,2.93,2.93,0,0,0-.92,1.07A5.37,5.37,0,0,0,47.41,14a9,9,0,0,0-.15,1.63v0.9h6.05Q53.27,15.15,53.15,14.15Z"/><path class="cls-1" d="M73.95,14.21a5.81,5.81,0,0,0-.39-1.48,2.63,2.63,0,0,0-.79-1.07,2.15,2.15,0,0,0-1.37-.41,2.7,2.7,0,0,0-2.79,2,10,10,0,0,0-.47,2.45Q68,17.13,68,19.15t0.13,3.67a10.4,10.4,0,0,0,.47,2.51,2.87,2.87,0,0,0,1,1.44,2.67,2.67,0,0,0,1.61.45,2.31,2.31,0,0,0,2.19-1.29,9.2,9.2,0,0,0,.69-4.12h5.67q0,4.55-2,6.93t-6.76,2.38A12.64,12.64,0,0,1,67,30.59a5.63,5.63,0,0,1-2.75-1.93,9.61,9.61,0,0,1-1.65-3.74,25.62,25.62,0,0,1-.56-5.82,21.39,21.39,0,0,1,.69-5.9A9.57,9.57,0,0,1,64.7,9.47a6.68,6.68,0,0,1,3-2A12.18,12.18,0,0,1,71.43,7q4.12,0,6.2,2.4a9.63,9.63,0,0,1,2.08,6.53H74.05A12.7,12.7,0,0,0,73.95,14.21Z"/><path class="cls-1" d="M88.95,16.18H89l6-8.63h6.53l-6.65,9.1,7.64,14H96l-4.94-9.49-2.1,2.75v6.74H83V0h5.92V16.18Z"/><path class="cls-2" d="M115.29,14.21a5.81,5.81,0,0,0-.39-1.48,2.65,2.65,0,0,0-.79-1.07,2.15,2.15,0,0,0-1.37-.41,2.7,2.7,0,0,0-2.79,2,10,10,0,0,0-.47,2.45q-0.13,1.48-.13,3.5t0.13,3.67a10.49,10.49,0,0,0,.47,2.51,2.86,2.86,0,0,0,1,1.44,2.67,2.67,0,0,0,1.61.45,2.31,2.31,0,0,0,2.19-1.29,9.23,9.23,0,0,0,.69-4.12h5.67q0,4.55-2,6.93t-6.76,2.38a12.62,12.62,0,0,1-3.88-.54,5.65,5.65,0,0,1-2.75-1.93A9.6,9.6,0,0,1,104,24.92a25.5,25.5,0,0,1-.56-5.82,21.3,21.3,0,0,1,.69-5.9A9.57,9.57,0,0,1,106,9.47a6.69,6.69,0,0,1,3-2A12.17,12.17,0,0,1,112.78,7q4.12,0,6.2,2.4a9.63,9.63,0,0,1,2.08,6.53h-5.67A13,13,0,0,0,115.29,14.21Z"/><path class="cls-2" d="M129.22,21.85a12.81,12.81,0,0,0,.15,2,6.45,6.45,0,0,0,.49,1.72,3.25,3.25,0,0,0,.9,1.2,2.12,2.12,0,0,0,1.38.45,2.41,2.41,0,0,0,2.19-1.07,7.93,7.93,0,0,0,.94-3.26h5.32A9.27,9.27,0,0,1,138.45,29q-2,2.1-6.22,2.1a9.85,9.85,0,0,1-5-1.07,6.65,6.65,0,0,1-2.66-2.83,11.18,11.18,0,0,1-1.05-3.95q-0.19-2.19-.19-4.38a30.07,30.07,0,0,1,.32-4.46,10.72,10.72,0,0,1,1.29-3.82,7,7,0,0,1,2.77-2.66,10,10,0,0,1,4.81-1,9.34,9.34,0,0,1,4.23.84,6.38,6.38,0,0,1,2.6,2.36,9.92,9.92,0,0,1,1.29,3.69,31.1,31.1,0,0,1,.34,4.83V20H129.22v1.85Zm5.88-7.71a6,6,0,0,0-.45-1.72,2.39,2.39,0,0,0-.9-1.07,2.74,2.74,0,0,0-1.48-.36,2.52,2.52,0,0,0-1.48.41,2.93,2.93,0,0,0-.92,1.07,5.25,5.25,0,0,0-.49,1.48,8.87,8.87,0,0,0-.15,1.63v0.9h6.05Q135.23,15.15,135.1,14.15Z"/><path class="cls-2" d="M149.7,7.56v2.7h0.09a6,6,0,0,1,2.45-2.51A7.24,7.24,0,0,1,155.66,7,5.85,5.85,0,0,1,160,8.5q1.52,1.55,1.52,5V30.65h-5.92V14.73a4,4,0,0,0-.6-2.51,2.4,2.4,0,0,0-1.93-.71q-3.13,0-3.13,3.82V30.65H144V7.56h5.67Z"/><path class="cls-2" d="M172.71,0.94V7.56h3.43v4h-3.43V24.08a3.49,3.49,0,0,0,.41,2,2,2,0,0,0,1.7.58l0.69,0,0.64-.06v4.12q-1,0-1.91.06t-2,.06a13.75,13.75,0,0,1-2.81-.24,2.86,2.86,0,0,1-1.67-.94,4.05,4.05,0,0,1-.79-1.87,16.31,16.31,0,0,1-.21-2.92V11.59h-3v-4h3V0.94h5.92Z"/><path class="cls-2" d="M183.26,21.85a13.06,13.06,0,0,0,.15,2,6.59,6.59,0,0,0,.49,1.72,3.23,3.23,0,0,0,.9,1.2,2.11,2.11,0,0,0,1.37.45,2.41,2.41,0,0,0,2.19-1.07,7.93,7.93,0,0,0,.95-3.26h5.32A9.26,9.26,0,0,1,192.49,29q-2,2.1-6.22,2.1a9.85,9.85,0,0,1-5-1.07,6.66,6.66,0,0,1-2.66-2.83,11.13,11.13,0,0,1-1.05-3.95q-0.19-2.19-.19-4.38a30.07,30.07,0,0,1,.32-4.46,10.8,10.8,0,0,1,1.29-3.82,7,7,0,0,1,2.77-2.66,10,10,0,0,1,4.81-1,9.34,9.34,0,0,1,4.23.84,6.39,6.39,0,0,1,2.6,2.36,9.89,9.89,0,0,1,1.29,3.69,31.07,31.07,0,0,1,.34,4.83V20H183.26v1.85Zm5.88-7.71a6,6,0,0,0-.45-1.72,2.4,2.4,0,0,0-.9-1.07,2.73,2.73,0,0,0-1.48-.36,2.52,2.52,0,0,0-1.48.41,2.93,2.93,0,0,0-.92,1.07,5.37,5.37,0,0,0-.49,1.48,9,9,0,0,0-.15,1.63v0.9h6.05Q189.27,15.15,189.15,14.15Z"/><path class="cls-2" d="M203.74,7.56v3.09h0.09A8.43,8.43,0,0,1,206,8a4.93,4.93,0,0,1,3.13-1l0.54,0L210.22,7v5.67l-0.92-.06-0.92,0a5.76,5.76,0,0,0-1.54.21,4.15,4.15,0,0,0-1.42.71,3.56,3.56,0,0,0-1,1.29,4.44,4.44,0,0,0-.39,2V30.65h-5.92V7.56h5.67Z"/><path class="cls-1" d="M2.4,45.21a1.61,1.61,0,0,0,.36,1.09,1.28,1.28,0,0,0,1,.41,1.48,1.48,0,0,0,1-.31,1.15,1.15,0,0,0,.37-0.92,1,1,0,0,0-.29-0.76,2.25,2.25,0,0,0-.67-0.41l-1.87-.67A3.54,3.54,0,0,1,.65,42.54a2.8,2.8,0,0,1-.56-1.8A3.44,3.44,0,0,1,.3,39.54a2.52,2.52,0,0,1,.67-1,3.36,3.36,0,0,1,1.19-.67,5.35,5.35,0,0,1,1.74-.25,4,4,0,0,1,2.68.77,2.76,2.76,0,0,1,.87,2.18V41H5.06a2.12,2.12,0,0,0-.26-1.19,1,1,0,0,0-.91-0.37,1.43,1.43,0,0,0-.88.28,1,1,0,0,0-.37.84,1.1,1.1,0,0,0,.24.69,1.85,1.85,0,0,0,.92.52l1.6,0.54a3.63,3.63,0,0,1,1.77,1.11,3,3,0,0,1,.52,1.86,3.3,3.3,0,0,1-.29,1.44,2.81,2.81,0,0,1-.8,1,3.15,3.15,0,0,1-1.21.58,6.49,6.49,0,0,1-1.55.17A6.92,6.92,0,0,1,2,48.26,2.71,2.71,0,0,1,.8,47.62a2.29,2.29,0,0,1-.61-1A5,5,0,0,1,0,45.23V44.86H2.4v0.35Z"/><path class="cls-1" d="M8.88,40.72A4.49,4.49,0,0,1,9.57,39a3.08,3.08,0,0,1,1.26-1,4.6,4.6,0,0,1,1.92-.36,4.89,4.89,0,0,1,2,.32A2.79,2.79,0,0,1,16,39a4.6,4.6,0,0,1,.65,1.71,13,13,0,0,1,.19,2.39,11.57,11.57,0,0,1-.21,2.35,4.53,4.53,0,0,1-.69,1.71,2.87,2.87,0,0,1-1.26,1,5,5,0,0,1-1.92.33,5.14,5.14,0,0,1-2-.3,2.69,2.69,0,0,1-1.25-1,4.49,4.49,0,0,1-.65-1.71,13,13,0,0,1-.19-2.38A11.54,11.54,0,0,1,8.88,40.72Zm2.48,3.81a5.09,5.09,0,0,0,.18,1.16,1.64,1.64,0,0,0,.43.75,1.08,1.08,0,0,0,.77.27,1.13,1.13,0,0,0,1.12-.85,9,9,0,0,0,.31-2.79,9,9,0,0,0-.31-2.79,1.13,1.13,0,0,0-1.12-.85,1.08,1.08,0,0,0-.77.27,1.64,1.64,0,0,0-.43.75,5.08,5.08,0,0,0-.18,1.16q0,0.67,0,1.46T11.36,44.54Z"/><path class="cls-1" d="M23.2,40.88A2.53,2.53,0,0,0,23,40.21a1.17,1.17,0,0,0-.36-0.48,1,1,0,0,0-.62-0.18,1.21,1.21,0,0,0-1.25.88,4.4,4.4,0,0,0-.21,1.1q-0.06.66-.06,1.57t0.06,1.65a4.61,4.61,0,0,0,.21,1.13,1.3,1.3,0,0,0,.43.64,1.2,1.2,0,0,0,.72.2,1,1,0,0,0,1-.58,4.15,4.15,0,0,0,.31-1.85h2.54a4.65,4.65,0,0,1-.92,3.11,3.8,3.8,0,0,1-3,1.07,5.68,5.68,0,0,1-1.74-.24,2.52,2.52,0,0,1-1.23-.87,4.27,4.27,0,0,1-.74-1.68,11.42,11.42,0,0,1-.25-2.61,9.6,9.6,0,0,1,.31-2.65,4.33,4.33,0,0,1,.87-1.68,3,3,0,0,1,1.33-.88,5.46,5.46,0,0,1,1.7-.25,3.49,3.49,0,0,1,2.79,1.08,4.32,4.32,0,0,1,.93,2.93H23.25A5.56,5.56,0,0,0,23.2,40.88Z"/><path class="cls-1" d="M29.94,34.34v2.27H27.28V34.34h2.66Zm0,3.55V48.26H27.28V37.89h2.66Z"/><path class="cls-1" d="M31.79,40.82a3.5,3.5,0,0,1,.29-1.51,2.64,2.64,0,0,1,.78-1A3.1,3.1,0,0,1,34,37.78a6,6,0,0,1,1.42-.16,6.57,6.57,0,0,1,1.93.23,2.64,2.64,0,0,1,1.14.66,2.2,2.2,0,0,1,.55,1,5.4,5.4,0,0,1,.14,1.28v5.45a7.35,7.35,0,0,0,.07,1.14,4,4,0,0,0,.26.87H37a2.21,2.21,0,0,1-.2-0.53c0-.19-0.09-0.37-0.12-0.55h0a2.25,2.25,0,0,1-1.07,1,4.32,4.32,0,0,1-1.57.24,2.61,2.61,0,0,1-1.18-.24A2,2,0,0,1,32,47.56a3,3,0,0,1-.42-1,4.24,4.24,0,0,1-.13-1,4.52,4.52,0,0,1,.15-1.26,2.44,2.44,0,0,1,.47-0.91,2.56,2.56,0,0,1,.81-0.63,6.36,6.36,0,0,1,1.19-.44l1.5-.41a1.6,1.6,0,0,0,.83-0.42,1.18,1.18,0,0,0,.23-0.79,1.43,1.43,0,0,0-.28-0.93,1.18,1.18,0,0,0-1-.34,1.14,1.14,0,0,0-.92.37,1.48,1.48,0,0,0-.31,1v0.29H31.79V40.82Zm4.28,2.59a3.79,3.79,0,0,1-.56.18,2,2,0,0,0-1.16.58,1.62,1.62,0,0,0-.35,1.1,2.1,2.1,0,0,0,.23,1,0.81,0.81,0,0,0,.77.42,1.94,1.94,0,0,0,.56-0.09,1.58,1.58,0,0,0,.53-0.28,1.49,1.49,0,0,0,.39-0.5,1.63,1.63,0,0,0,.15-0.73v-2A2.37,2.37,0,0,1,36.06,43.41Z"/><path class="cls-1" d="M43.83,34.5V48.26H41.17V34.5h2.66Z"/><path class="cls-1" d="M53.08,34.34v2.27H50.42V34.34h2.66Zm0,3.55V48.26H50.42V37.89h2.66Z"/><path class="cls-1" d="M57.49,37.89v1.06h0a3.05,3.05,0,0,1,1.13-1,3.34,3.34,0,0,1,1.49-.31A2.71,2.71,0,0,1,61.7,38a2.07,2.07,0,0,1,.84,1.23h0a2.35,2.35,0,0,1,1-1.24,3.08,3.08,0,0,1,1.63-.42,2.33,2.33,0,0,1,2,.8,3.67,3.67,0,0,1,.63,2.3v7.53H65.12V41a1.75,1.75,0,0,0-.24-1,0.9,0.9,0,0,0-.8-0.35,1.29,1.29,0,0,0-1,.42,2,2,0,0,0-.37,1.35v6.82H60V41a1.75,1.75,0,0,0-.24-1,0.9,0.9,0,0,0-.8-0.35,1.29,1.29,0,0,0-1,.42,2,2,0,0,0-.38,1.35v6.82H54.95V37.89h2.54Z"/><path class="cls-1" d="M72.09,37.89V39h0a2.93,2.93,0,0,1,1-1,2.68,2.68,0,0,1,1.36-.32,2.61,2.61,0,0,1,2.41,1.28,8.46,8.46,0,0,1,.77,4.17,8.28,8.28,0,0,1-.77,4.14,2.62,2.62,0,0,1-2.41,1.25,2.46,2.46,0,0,1-2.24-1.17h0v4.3H69.55V37.89h2.55Zm0.38,7.74a1.1,1.1,0,0,0,1.15.86,1.09,1.09,0,0,0,1.13-.86A9.38,9.38,0,0,0,75,43.07a9.38,9.38,0,0,0-.26-2.55,1.09,1.09,0,0,0-1.13-.86,1.1,1.1,0,0,0-1.15.86,9.38,9.38,0,0,0-.26,2.55A9.37,9.37,0,0,0,72.47,45.63Z"/><path class="cls-1" d="M79.16,40.82a3.5,3.5,0,0,1,.29-1.51,2.64,2.64,0,0,1,.78-1,3.1,3.1,0,0,1,1.16-.54,6,6,0,0,1,1.42-.16,6.57,6.57,0,0,1,1.93.23,2.64,2.64,0,0,1,1.14.66,2.2,2.2,0,0,1,.55,1,5.4,5.4,0,0,1,.14,1.28v5.45a7.37,7.37,0,0,0,.07,1.14,4,4,0,0,0,.26.87H84.35a2.22,2.22,0,0,1-.2-0.53c0-.19-0.09-0.37-0.12-0.55h0a2.25,2.25,0,0,1-1.07,1,4.32,4.32,0,0,1-1.57.24,2.61,2.61,0,0,1-1.18-.24,2,2,0,0,1-.77-0.66,3,3,0,0,1-.42-1,4.24,4.24,0,0,1-.13-1A4.52,4.52,0,0,1,79,44.3a2.44,2.44,0,0,1,.47-0.91,2.56,2.56,0,0,1,.81-0.63,6.36,6.36,0,0,1,1.19-.44l1.5-.41a1.6,1.6,0,0,0,.83-0.42A1.18,1.18,0,0,0,84,40.7a1.43,1.43,0,0,0-.28-0.93,1.18,1.18,0,0,0-1-.34,1.14,1.14,0,0,0-.92.37,1.48,1.48,0,0,0-.31,1v0.29H79.16V40.82Zm4.28,2.59a3.79,3.79,0,0,1-.56.18,2,2,0,0,0-1.16.58,1.62,1.62,0,0,0-.35,1.1,2.1,2.1,0,0,0,.23,1,0.81,0.81,0,0,0,.77.42,1.94,1.94,0,0,0,.56-0.09,1.58,1.58,0,0,0,.53-0.28,1.48,1.48,0,0,0,.39-0.5A1.63,1.63,0,0,0,84,45.11v-2A2.37,2.37,0,0,1,83.44,43.41Z"/><path class="cls-1" d="M93.39,40.88a2.61,2.61,0,0,0-.17-0.67,1.19,1.19,0,0,0-.36-0.48,1,1,0,0,0-.62-0.18,1.32,1.32,0,0,0-.79.22,1.31,1.31,0,0,0-.46.66,4.47,4.47,0,0,0-.21,1.1q-0.06.66-.06,1.57t0.06,1.65A4.69,4.69,0,0,0,91,45.87a1.27,1.27,0,0,0,.43.64,1.2,1.2,0,0,0,.72.2,1,1,0,0,0,1-.58,4.15,4.15,0,0,0,.31-1.85H96a4.66,4.66,0,0,1-.91,3.11,3.81,3.81,0,0,1-3,1.07,5.67,5.67,0,0,1-1.74-.24,2.52,2.52,0,0,1-1.23-.87,4.3,4.3,0,0,1-.74-1.68,11.41,11.41,0,0,1-.25-2.61,9.59,9.59,0,0,1,.31-2.65,4.28,4.28,0,0,1,.87-1.68,3,3,0,0,1,1.33-.88,5.46,5.46,0,0,1,1.7-.25,3.49,3.49,0,0,1,2.79,1.08A4.32,4.32,0,0,1,96,41.63H93.44A5.56,5.56,0,0,0,93.39,40.88Z"/><path class="cls-1" d="M100.61,34.92v3h1.54V39.7h-1.54v5.61a1.57,1.57,0,0,0,.18.88,0.89,0.89,0,0,0,.76.26h0.31l0.29,0v1.85c-0.3,0-.58,0-0.86,0s-0.57,0-.88,0a6.1,6.1,0,0,1-1.26-.11,1.28,1.28,0,0,1-.75-0.42A1.81,1.81,0,0,1,98,46.94a7.37,7.37,0,0,1-.1-1.31V39.7H96.6V37.89h1.35v-3h2.66Z"/><path class="cls-3" d="M112.05,36.62h3.31v4.16h4.16v3.31h-4.16v4.16h-3.31V44.09h-4.16V40.78h4.16V36.62Z"/><path class="cls-1" d="M128.88,34.34v2.27h-2.66V34.34h2.66Zm0,3.55V48.26h-2.66V37.89h2.66Z"/><path class="cls-1" d="M133.29,37.89V39.1h0a2.69,2.69,0,0,1,1.1-1.13,3.25,3.25,0,0,1,1.54-.36,2.63,2.63,0,0,1,2,.69,3.13,3.13,0,0,1,.68,2.25v7.69h-2.66V41.11a1.78,1.78,0,0,0-.27-1.13,1.08,1.08,0,0,0-.87-0.32q-1.41,0-1.41,1.71v6.88h-2.66V37.89h2.54Z"/><path class="cls-1" d="M142.92,37.89V39.1h0a2.69,2.69,0,0,1,1.1-1.13,3.25,3.25,0,0,1,1.54-.36,2.63,2.63,0,0,1,2,.69,3.13,3.13,0,0,1,.68,2.25v7.69h-2.66V41.11a1.78,1.78,0,0,0-.27-1.13,1.08,1.08,0,0,0-.87-0.32q-1.41,0-1.41,1.71v6.88h-2.66V37.89h2.54Z"/><path class="cls-1" d="M149.88,40.72a4.52,4.52,0,0,1,.7-1.71,3.07,3.07,0,0,1,1.26-1,4.6,4.6,0,0,1,1.92-.36,4.87,4.87,0,0,1,2,.32A2.78,2.78,0,0,1,157,39a4.64,4.64,0,0,1,.65,1.71,13,13,0,0,1,.19,2.39,11.71,11.71,0,0,1-.21,2.35,4.53,4.53,0,0,1-.69,1.71,2.87,2.87,0,0,1-1.26,1,5,5,0,0,1-1.92.33,5.13,5.13,0,0,1-2-.3,2.68,2.68,0,0,1-1.25-1,4.49,4.49,0,0,1-.65-1.71,13,13,0,0,1-.19-2.38A11.69,11.69,0,0,1,149.88,40.72Zm2.49,3.81a5,5,0,0,0,.18,1.16,1.64,1.64,0,0,0,.43.75,1.08,1.08,0,0,0,.77.27,1.13,1.13,0,0,0,1.12-.85,8.94,8.94,0,0,0,.31-2.79,8.93,8.93,0,0,0-.31-2.79,1.13,1.13,0,0,0-1.12-.85,1.08,1.08,0,0,0-.77.27,1.64,1.64,0,0,0-.43.75,5,5,0,0,0-.18,1.16q0,0.67,0,1.46T152.36,44.54Z"/><path class="cls-1" d="M166.83,37.89l-2.6,10.37h-3.08l-2.68-10.37h2.78l1.48,7.42h0l1.41-7.42h2.66Z"/><path class="cls-1" d="M167.8,40.82a3.5,3.5,0,0,1,.29-1.51,2.62,2.62,0,0,1,.78-1,3.1,3.1,0,0,1,1.16-.54,6,6,0,0,1,1.42-.16,6.57,6.57,0,0,1,1.93.23,2.65,2.65,0,0,1,1.14.66,2.21,2.21,0,0,1,.55,1,5.4,5.4,0,0,1,.14,1.28v5.45a7.37,7.37,0,0,0,.07,1.14,4.06,4.06,0,0,0,.26.87H173a2.21,2.21,0,0,1-.2-0.53c0-.19-0.09-0.37-0.12-0.55h0a2.25,2.25,0,0,1-1.07,1,4.32,4.32,0,0,1-1.57.24,2.61,2.61,0,0,1-1.17-.24,2,2,0,0,1-.77-0.66,3,3,0,0,1-.42-1,4.24,4.24,0,0,1-.13-1,4.52,4.52,0,0,1,.15-1.26,2.41,2.41,0,0,1,.47-0.91,2.56,2.56,0,0,1,.81-0.63,6.36,6.36,0,0,1,1.19-.44l1.5-.41a1.6,1.6,0,0,0,.83-0.42,1.18,1.18,0,0,0,.23-0.79,1.43,1.43,0,0,0-.28-0.93,1.18,1.18,0,0,0-1-.34,1.14,1.14,0,0,0-.92.37,1.47,1.47,0,0,0-.31,1v0.29H167.8V40.82Zm4.28,2.59a3.86,3.86,0,0,1-.56.18,2,2,0,0,0-1.16.58,1.62,1.62,0,0,0-.35,1.1,2.13,2.13,0,0,0,.23,1,0.81,0.81,0,0,0,.77.42,1.94,1.94,0,0,0,.56-0.09,1.55,1.55,0,0,0,.53-0.28,1.47,1.47,0,0,0,.4-0.5,1.64,1.64,0,0,0,.15-0.73v-2A2.41,2.41,0,0,1,172.07,43.41Z"/><path class="cls-1" d="M180.32,34.92v3h1.54V39.7h-1.54v5.61a1.57,1.57,0,0,0,.18.88,0.89,0.89,0,0,0,.76.26h0.31l0.29,0v1.85c-0.29,0-.58,0-0.86,0s-0.57,0-.88,0a6.12,6.12,0,0,1-1.26-.11,1.28,1.28,0,0,1-.75-0.42,1.83,1.83,0,0,1-.36-0.84,7.34,7.34,0,0,1-.1-1.31V39.7h-1.35V37.89h1.35v-3h2.66Z"/><path class="cls-1" d="M185.54,34.34v2.27h-2.66V34.34h2.66Zm0,3.55V48.26h-2.66V37.89h2.66Z"/><path class="cls-1" d="M187.27,40.72A4.52,4.52,0,0,1,188,39a3.07,3.07,0,0,1,1.26-1,4.6,4.6,0,0,1,1.92-.36,4.87,4.87,0,0,1,2,.32,2.78,2.78,0,0,1,1.25,1,4.64,4.64,0,0,1,.65,1.71,13,13,0,0,1,.19,2.39,11.7,11.7,0,0,1-.21,2.35,4.53,4.53,0,0,1-.69,1.71,2.87,2.87,0,0,1-1.26,1,5,5,0,0,1-1.92.33,5.13,5.13,0,0,1-2-.3,2.68,2.68,0,0,1-1.25-1,4.49,4.49,0,0,1-.65-1.71,13,13,0,0,1-.19-2.38A11.7,11.7,0,0,1,187.27,40.72Zm2.49,3.81a5,5,0,0,0,.18,1.16,1.64,1.64,0,0,0,.43.75,1.08,1.08,0,0,0,.77.27,1.13,1.13,0,0,0,1.12-.85,8.94,8.94,0,0,0,.31-2.79,8.93,8.93,0,0,0-.31-2.79,1.13,1.13,0,0,0-1.12-.85,1.08,1.08,0,0,0-.77.27,1.64,1.64,0,0,0-.43.75,5,5,0,0,0-.18,1.16q0,0.67,0,1.46T189.76,44.54Z"/><path class="cls-1" d="M199.2,37.89V39.1h0a2.69,2.69,0,0,1,1.1-1.13,3.25,3.25,0,0,1,1.54-.36,2.63,2.63,0,0,1,2,.69,3.13,3.13,0,0,1,.68,2.25v7.69h-2.66V41.11a1.78,1.78,0,0,0-.27-1.13,1.08,1.08,0,0,0-.87-0.32q-1.41,0-1.41,1.71v6.88h-2.66V37.89h2.54Z"/></svg>