<?xml version="1.0" encoding="UTF-8"?>
<svg width="140px" height="140px" viewBox="0 0 140 140" version="1.1" xmlns="http://www.w3.org/2000/svg" xmlns:xlink="http://www.w3.org/1999/xlink">
    <title>Calendly Logo</title>
    <g id="Calendly-Logo" stroke="none" stroke-width="1" fill="none" fill-rule="evenodd">
        <g id="calendly" transform="translate(3.000000, 0.000000)" fill="#FFFFFF" fill-rule="nonzero">
            <path d="M119.180244,139.980708 L14.8557332,139.980708 C6.69019191,139.980708 0.0411082921,133.331624 0.0411082921,125.166083 L0.0411082921,20.8026885 C0.0411082921,12.6371472 6.69019191,5.98806361 14.8557332,5.98806361 L119.180244,5.98806361 C127.345785,5.98806361 133.995038,12.6371472 133.995038,20.8026885 L133.995038,125.127199 C134.033752,133.331624 127.384669,139.980708 119.180244,139.980708 Z M14.8557332,14.1924884 C11.2006814,14.1924884 8.2455331,17.1476367 8.2455331,20.8026885 L8.2455331,125.127199 C8.2455331,128.782251 11.2006814,131.737399 14.8557332,131.737399 L119.180244,131.737399 C122.835296,131.737399 125.790444,128.782251 125.790444,125.127199 L125.790444,20.8026885 C125.790444,17.1476367 122.835296,14.1924884 119.180244,14.1924884 L14.8557332,14.1924884 Z" id="Shape"></path>
            <path d="M96.9388648,28.1516757 C95.189106,28.1516757 93.7892989,26.7518686 93.7892989,25.0021097 L93.7892989,3.14956592 C93.7892989,1.39980708 95.189106,5.52568194e-15 96.9388648,5.52568194e-15 C98.6886237,5.52568194e-15 100.088431,1.39980708 100.088431,3.14956592 L100.088431,24.9632262 C100.088431,26.712985 98.6886237,28.1516757 96.9388648,28.1516757 L96.9388648,28.1516757 Z M36.7860441,28.1516757 C35.0362852,28.1516757 33.6364781,26.7518686 33.6364781,25.0021097 L33.6364781,3.14956592 C33.6364781,1.39980708 35.0362852,5.52568194e-15 36.7860441,5.52568194e-15 C38.5358029,5.52568194e-15 39.93561,1.39980708 39.93561,3.14956592 L39.93561,24.9632262 C39.9744935,26.712985 38.5358029,28.1516757 36.7860441,28.1516757 L36.7860441,28.1516757 Z M70.8091327,98.6863989 C57.7442667,98.6863989 47.129063,88.0711952 47.129063,75.0063292 C47.129063,61.9414631 57.7442667,51.3262595 70.8091327,51.3262595 C76.7194293,51.3262595 82.3575411,53.5037371 86.7124965,57.4698572 C87.2568659,57.9364596 87.2957494,58.7918972 86.7902635,59.2973831 C86.3236612,59.8417525 85.4682235,59.8806361 84.9627376,59.3751502 C81.0743846,55.8367489 76.0584093,53.8925724 70.8091327,53.8925724 C59.1829573,53.8925724 49.7342595,63.3412702 49.7342595,74.9674457 C49.7342595,86.5936211 59.1829573,96.0423189 70.8091327,96.0423189 C76.0584093,96.0423189 81.0743846,94.0981424 84.9627376,90.5597411 C85.507107,90.0931388 86.3236612,90.1320223 86.7902635,90.6375082 C87.2568659,91.1818776 87.2179823,91.9984318 86.7124965,92.4650341 C82.3575411,96.5089212 76.7194293,98.6863989 70.8091327,98.6863989 L70.8091327,98.6863989 Z" id="Shape"></path>
        </g>
    </g>
</svg>