<?xml version="1.0" encoding="UTF-8"?>
<svg width="592px" height="97px" viewBox="0 0 592 97" version="1.1" xmlns="http://www.w3.org/2000/svg" xmlns:xlink="http://www.w3.org/1999/xlink">
    <title>black</title>
    <g id="Page-1" stroke="none" stroke-width="1" fill="none" fill-rule="evenodd">
        <g id="Artboard" transform="translate(-353.000000, -375.000000)" fill="#FFFFFF" fill-rule="nonzero">
            <g id="black" transform="translate(353.000000, 375.000000)">
                <path d="M122.215847,27.3579819 L127.56875,27.3579819 L127.56875,69.6217148 L122.215847,69.6217148 L122.215847,27.3579819 Z M145.335558,69.6217148 L139.982656,69.6217148 L139.982656,27.3579819 L144.809405,27.3579819 L168.778684,61.3531573 L168.778684,27.3579819 L174.136069,27.3579819 L174.136069,69.6217148 L169.237258,69.6217148 L145.335558,35.6748315 L145.335558,69.6217148 Z M216.456235,64.6317575 C213.672726,67.9585111 209.189045,69.6217148 203.004504,69.6217148 L186.545493,69.6217148 L186.545493,27.3579819 L203.004504,27.3579819 C209.143878,27.3579819 213.618249,29.0310587 216.427273,32.3771778 C219.236296,35.7233315 220.639257,41.1823531 220.636159,48.7542426 C220.636159,56.0254322 219.242847,61.3178216 216.456235,64.6317575 Z M213.975454,38.3520316 C213.103129,35.8785315 211.721201,34.1391136 209.829325,33.1337778 C207.937104,32.1284421 205.335645,31.6255663 202.024604,31.6255663 L191.888741,31.6255663 L191.888741,65.4219611 L202.024604,65.4219611 C205.155319,65.4219611 207.670235,64.9615575 209.568662,64.0400574 C211.467089,63.1185574 212.887634,61.4567395 213.830641,59.0546037 C214.795715,56.64935 215.278424,53.2158964 215.278424,48.7542426 C215.278424,44.2925889 214.843986,40.8251852 213.975454,38.3520316 Z M258.235767,62.7936074 C260.346586,60.8539538 261.401996,57.9893358 261.401996,54.2001 L261.401996,27.3579819 L266.75938,27.3579819 L266.75938,54.1322 C266.75938,59.3861358 265.245397,63.3884253 262.217775,66.1397611 C259.189807,68.8910969 254.824735,70.2698826 249.122903,70.2764648 C243.3728,70.2764648 238.985317,68.897679 235.960797,66.1397611 C232.935934,63.3821896 231.423674,59.3795537 231.423674,54.1322 L231.423674,27.3579819 L236.781059,27.3579819 L236.781059,54.2001 C236.781059,58.0087358 237.847846,60.8733538 239.981422,62.7936074 C242.114653,64.7142075 245.161928,65.6838611 249.122903,65.7032611 C253.080775,65.6904432 256.118397,64.7204432 258.235767,62.7936074 Z M303.234625,67.2601111 C300.512144,69.271129 296.490141,70.2764648 291.167925,70.2764648 C285.945354,70.2764648 281.721992,69.6203291 278.497838,68.3077112 L278.497838,63.5405074 C282.404336,64.9989718 286.541845,65.7334003 290.709351,65.7081111 C294.570682,65.7081111 297.411771,65.1829253 299.233309,64.1322074 C301.038298,63.0797574 301.945791,61.2468038 301.945791,58.6181037 C302.007854,57.2327358 301.605136,55.8664214 300.80177,54.73845 C299.838075,53.6111714 298.601305,52.7527213 297.210757,52.2458963 C294.882374,51.357307 292.491583,50.6440105 290.057694,50.1118962 C285.443337,48.9773426 282.199874,47.5126426 280.327307,45.718489 C278.454394,43.9239889 277.526213,41.4588031 277.541874,38.3229316 C277.541874,34.6469779 278.85987,31.7920599 281.495119,29.7584895 C284.130712,27.7249191 288.009627,26.7000447 293.132208,26.6836068 C295.32957,26.6757254 297.524173,26.837854 299.69671,27.1688319 C301.413777,27.4037451 303.107742,27.7866526 304.759642,28.313328 L304.759642,33.0416278 C301.295168,31.832592 297.649333,31.2320927 293.981776,31.266701 C290.281464,31.266701 287.505885,31.8145778 285.655729,32.9106778 C283.805573,34.0067778 282.880495,35.8106315 282.880495,38.3229316 C282.81326,39.5569102 283.152536,40.7787638 283.845913,41.8000352 C284.497571,42.6775388 285.597804,43.4292889 287.142474,44.0646389 C289.387417,44.9140818 291.688906,45.6041675 294.030047,46.130739 C298.953338,47.3137926 302.392987,48.8997426 304.349339,50.8878963 C306.305691,52.8763963 307.285592,55.44655 307.289091,58.5987037 C307.298694,62.3588395 305.944004,65.2459753 303.224971,67.2601111 L303.234625,67.2601111 Z M333.507055,69.6217148 L328.14967,69.6217148 L328.14967,31.6255663 L314.152477,31.6255663 L314.152477,27.3579819 L347.455977,27.3579819 L347.455977,31.6255663 L333.458784,31.6255663 L333.507055,69.6217148 Z M386.469239,48.2837926 C384.948705,50.3204463 382.728242,51.6881463 379.80785,52.3865463 C380.556049,52.7956785 381.204259,53.3672856 381.707656,54.05945 C382.286907,54.9667464 382.790304,55.9225429 383.207503,56.9161 L388.689702,69.6459648 L383.197159,69.6459648 L377.839085,57.3720001 C377.23225,55.9752 376.50129,55.01005 375.653101,54.462 C374.804912,53.9139499 373.422294,53.6717964 371.508696,53.6717964 L362.619948,53.6717964 L362.619948,69.6217148 L357.268769,69.6217148 L357.268769,27.3579819 L375.749643,27.3579819 C380.145746,27.3579819 383.41093,28.507328 385.548643,30.8060202 C387.686356,33.1046778 388.751765,36.3378958 388.748325,40.5050852 C388.748325,43.6413032 387.986326,46.2260068 386.458895,48.2595426 L386.469239,48.2837926 Z M383.400587,40.5244852 C383.400587,34.6178779 380.593976,31.6643663 374.977308,31.6643663 L362.619948,31.6643663 L362.619948,49.4768927 L374.249796,49.4768927 C380.345726,49.4768927 383.393691,46.4795925 383.390243,40.4856852 L383.400587,40.5244852 Z M409.308289,53.8702999 L394.299475,27.3579819 L399.850633,27.3579819 L411.99767,49.2780426 L424.148155,27.3579819 L429.695865,27.3579819 L414.676707,53.8702999 L414.676707,69.6217148 L409.308289,69.6217148 L409.308289,53.8702999 Z M443.72202,27.3579819 L462.547686,27.3579819 C469.257347,27.3579819 474.339587,29.0537152 477.801303,32.4450778 C481.259571,35.8366136 482.990429,41.2731174 482.993877,48.7542426 C482.993877,55.8667679 481.263019,61.1269395 477.801303,64.5347575 C474.336139,67.942229 469.253899,69.6379969 462.547686,69.6218309 L443.72202,69.6218309 L443.72202,27.3579819 Z M460.968537,60.1701037 C462.789041,60.2373109 464.599201,59.9064716 466.27834,59.2001037 C467.695437,58.4933894 468.798773,57.2836608 469.378024,55.80545 C470.095192,54.16615 470.453777,51.8159784 470.457252,48.7542426 C470.460672,45.6925068 470.140015,43.2678532 469.491806,41.4799352 C468.974617,39.9185816 467.881625,38.6153173 466.436945,37.8379315 C465.064671,37.1395315 463.244167,36.7903315 460.982329,36.7903315 L456.017318,36.7903315 L456.017318,60.1507037 L460.968537,60.1701037 Z M490.813769,27.3579819 L503.091827,27.3579819 L503.091827,69.6217148 L490.813769,69.6217148 L490.813769,27.3579819 Z M509.635987,27.3579819 L522.441577,27.3579819 L532.233682,55.2962 L542.043026,27.3579819 L554.91068,27.3579819 L538.774394,69.6217148 L525.782616,69.6217148 L509.635987,27.3579819 Z M560.123941,27.3579819 L591.979312,27.3579819 L591.979312,36.8097315 L572.381311,36.8097315 L572.381311,43.7008889 L589.562318,43.7008889 L589.562318,53.2789464 L572.401999,53.2789464 L572.401999,60.1701037 L592,60.1701037 L592,69.6217148 L560.141181,69.6217148 L560.123941,27.3579819 Z M52.4226211,59.0255037 C52.6591487,59.0255037 52.7894803,58.9867037 52.9053305,58.9770037 C57.6355377,58.3853037 61.3230926,53.7202964 61.3230926,48.0558426 C61.3230926,42.3917353 57.6741545,37.7797315 52.9777369,37.1443815 C52.8618867,37.1443815 52.6929384,37.1152815 52.4950275,37.1055815 C52.2971167,37.0958815 51.8047531,37.1055815 51.4475482,37.0764815 L39.3808479,37.0764815 L39.3808479,59.0352037 L51.4765107,59.0352037 C51.7178654,59.0303537 52.1909206,59.0400537 52.4226211,59.0255037 Z M25.3354529,59.8791037 L25.3354529,22.8866975 L51.4861649,22.8866975 C58.4268363,22.8866975 60.6569537,24.3706589 60.6569537,24.3706589 L76.4063818,9.09457877 C67.0990552,2.3843264 55.719871,-0.781240992 44.3034493,0.16383004 C32.8866482,1.10891493 22.1766716,6.10299474 14.0881173,14.2532468 C5.99956301,22.4034989 1.05978064,33.1784671 0.15189393,44.6521818 C-0.75599278,56.12555 2.42721013,67.5497254 9.13241588,76.8814722 L25.3354529,59.8791037 Z M87.1166687,19.7150745 L71.9851086,34.9282779 C71.9851086,34.9282779 72.6657288,36.3829315 73.7225176,39.1179852 C75.2282261,42.8604531 75.7161073,46.9375711 75.1368561,50.9315463 C74.5238152,55.7812 73.1336121,61.5714073 68.3120349,66.5326111 C63.490113,71.4938148 58.7792142,73.0357685 52.9584285,73.1570185 C47.1372981,73.2782685 33.9268869,73.1570185 33.9268869,73.1570185 L19.5193565,87.4537797 C28.806754,94.3757692 40.2590342,97.7174193 51.7919958,96.8710943 C63.3249574,96.0244228 74.1721269,91.0458976 82.3599125,82.8410831 C90.5473532,74.6366149 95.5309829,63.751136 96.4039973,52.1655249 C97.2770117,40.5802602 93.9814857,29.0648355 87.1166687,19.7150745 Z" id="Shape"></path>
            </g>
        </g>
    </g>
</svg>