<?xml version="1.0" encoding="UTF-8"?>
<svg width="53px" height="48px" viewBox="0 0 53 48" version="1.1" xmlns="http://www.w3.org/2000/svg" xmlns:xlink="http://www.w3.org/1999/xlink">
    <!-- Generator: Sketch 49.3 (51167) - http://www.bohemiancoding.com/sketch -->
    <title>if_-15_3057688</title>
    <desc>Created with Sketch.</desc>
    <defs></defs>
    <g id="Page-1" stroke="none" stroke-width="1" fill="none" fill-rule="evenodd">
        <g id="if_-15_3057688" fill="#4A4A4A" fill-rule="nonzero">
            <path d="M0,46.7 C0,47.4 0.6,48 1.3,48 L10.6,48 C11.3,48 11.9,47.4 11.9,46.7 L11.9,15.9 C11.9,15.2 11.3,14.6 10.6,14.6 L1.3,14.6 C0.6,14.6 0,15.2 0,15.9 L0,46.7 Z" id="Shape"></path>
            <path d="M38.6,14.3 C34.1,14.3 30.9,16.1 29.2,18 C28.8,18.4 28.1,18.1 28.1,17.5 L28.1,15.9 C28.1,15.2 27.5,14.6 26.8,14.6 L17.4,14.6 C16.7,14.6 16.1,15.2 16.1,15.9 C16.2,21.6 16.1,41.3 16.1,46.6 C16.1,47.3 16.7,47.9 17.4,47.9 L26.9,47.9 C27.6,47.9 28.2,47.3 28.2,46.6 L28.2,29.9 C28.2,28.9 28.2,27.9 28.5,27.2 C29.3,25.2 31.1,23.1 34.2,23.1 C38.3,23.1 40.2,26.2 40.2,30.7 L40.2,46.6 C40.2,47.3 40.8,47.9 41.5,47.9 L50.8,47.9 C51.5,47.9 52.1,47.3 52.1,46.6 L52.1,29.4 C52,19.1 46.1,14.3 38.6,14.3 Z" id="Shape"></path>
            <path d="M5.9,10.9 C9.7,10.9 12,8.5 12,5.5 C11.9,2.3 9.7,0 6,0 C2.3,0 0,2.3 0,5.4 C0,8.5 2.3,10.9 5.9,10.9 Z" id="Shape"></path>
        </g>
    </g>
</svg>