<?xml version="1.0" encoding="UTF-8"?>
<svg width="1113px" height="300px" viewBox="0 0 1113 300" version="1.1" xmlns="http://www.w3.org/2000/svg" xmlns:xlink="http://www.w3.org/1999/xlink">
    <title>Industry Dive</title>
    <g id="Industry-Dive" stroke="none" stroke-width="1" fill="none" fill-rule="evenodd">
        <rect fill="#2B3A42" x="0" y="0" width="1113" height="300"></rect>
        <g id="black" transform="translate(333.000000, 114.000000)" fill="#FFFFFF" fill-rule="nonzero">
            <path d="M92.0747769,20.5889967 L96.1075377,20.5889967 L96.1075377,52.3957235 L92.0747769,52.3957235 L92.0747769,20.5889967 Z M109.492667,52.3957235 L105.459906,52.3957235 L105.459906,20.5889967 L109.096275,20.5889967 L127.154211,46.1729947 L127.154211,20.5889967 L131.190349,20.5889967 L131.190349,52.3957235 L127.499691,52.3957235 L109.492667,26.848069 L109.492667,52.3957235 Z M163.073447,48.6403948 C160.976412,51.1440342 157.598504,52.3957235 152.939204,52.3957235 L140.539341,52.3957235 L140.539341,20.5889967 L152.939204,20.5889967 C157.564475,20.5889967 160.93537,21.8481164 163.051628,24.3663297 C165.167885,26.884569 166.224845,30.9929049 166.222511,36.6913372 C166.222511,42.1634696 165.172821,46.1464018 163.073447,48.6403948 Z M161.20448,28.8628691 C160.54729,27.001369 159.506175,25.6923226 158.080876,24.9357297 C156.655318,24.1791368 154.695435,23.8006839 152.200968,23.8006839 L144.564828,23.8006839 L144.564828,49.2350841 L152.200968,49.2350841 C154.559581,49.2350841 156.454265,48.8885948 157.884499,48.1950948 C159.314732,47.5015947 160.38494,46.2509483 161.095381,44.4431554 C161.822447,42.633016 162.18611,40.0490766 162.18611,36.6913372 C162.18611,33.3335978 161.858814,30.7241085 161.20448,28.8628691 Z M194.549243,47.2570447 C196.139489,45.7973054 196.934612,43.6414589 196.934612,40.7897659 L196.934612,20.5889967 L200.970749,20.5889967 L200.970749,40.7386659 C200.970749,44.6926589 199.830147,47.7046912 197.549202,49.7752841 C195.267997,51.845877 191.979446,52.8835199 187.683809,52.8884735 C183.351805,52.8884735 180.04637,51.8508306 177.767763,49.7752841 C175.488896,47.6999983 174.349592,44.6877054 174.349592,40.7386659 L174.349592,20.5889967 L178.38573,20.5889967 L178.38573,40.7897659 C178.38573,43.6560589 179.189425,45.8119054 180.796814,47.2570447 C182.403944,48.7024448 184.699696,49.4321841 187.683809,49.4467841 C190.665584,49.4371377 192.954062,48.7071376 194.549243,47.2570447 Z M228.45041,50.6184341 C226.399352,52.1318806 223.369262,52.8884735 219.359619,52.8884735 C215.425047,52.8884735 212.243258,52.3946806 209.81425,51.4068342 L209.81425,47.8191448 C212.757321,48.9167519 215.874431,49.4694662 219.01414,49.4504341 C221.923182,49.4504341 224.063598,49.0551912 225.435905,48.2644448 C226.795745,47.4723947 227.479431,46.0929554 227.479431,44.1146553 C227.526187,43.0720589 227.222789,42.0438017 226.61755,41.194916 C225.891523,40.3465516 224.959767,39.7005016 223.912158,39.3190766 C222.158005,38.6503444 220.356835,38.1135337 218.523195,37.7130766 C215.046838,36.8592372 212.603284,35.7569372 211.192532,34.4066979 C209.78152,33.0561978 209.082248,31.2009549 209.094047,28.8409691 C209.094047,26.0745297 210.086997,23.9259832 212.072336,22.3955642 C214.057935,20.8651453 216.980225,20.0938481 220.839467,20.0814773 C222.494912,20.075546 224.148279,20.1975602 225.785022,20.4466467 C227.078622,20.623437 228.354819,20.9116046 229.599325,21.3079685 L229.599325,24.8663797 C226.989265,23.9564868 224.242572,23.5045646 221.479514,23.53061 C218.691779,23.53061 216.600717,23.9429297 215.20685,24.7678297 C213.812982,25.5927297 213.116048,26.950269 213.116048,28.8409691 C213.065395,29.7696334 213.320998,30.6891727 213.843374,31.4577585 C214.334319,32.1181478 215.16321,32.6838978 216.326931,33.1620478 C218.018223,33.8013193 219.752115,34.3206622 221.51588,34.7169479 C225.224981,35.6072872 227.816338,36.8008372 229.290212,38.2970766 C230.764085,39.7935766 231.502321,41.727816 231.504957,44.1000553 C231.512192,46.9298483 230.491598,49.1026412 228.443137,50.6184341 L228.45041,50.6184341 Z M251.257004,52.3957235 L247.220867,52.3957235 L247.220867,23.8006839 L236.675684,23.8006839 L236.675684,20.5889967 L261.765821,20.5889967 L261.765821,23.8006839 L251.220638,23.8006839 L251.257004,52.3957235 Z M291.157569,36.3372872 C290.012031,37.8700266 288.339182,38.8993266 286.139022,39.4249266 C286.702699,39.7328302 287.191046,40.1630088 287.570295,40.6839159 C288.00669,41.3667267 288.385939,42.0860374 288.700247,42.833766 L292.830418,52.4139735 L288.692454,52.4139735 L284.655797,43.176866 C284.198621,42.125666 283.647932,41.399316 283.008924,40.986866 C282.369917,40.5744159 281.328282,40.3921766 279.886619,40.3921766 L273.190028,40.3921766 L273.190028,52.3957235 L269.158566,52.3957235 L269.158566,20.5889967 L283.081657,20.5889967 C286.393586,20.5889967 288.853505,21.4539685 290.464012,23.1839121 C292.074519,24.9138297 292.877174,27.3470762 292.874583,30.4832085 C292.874583,32.843455 292.300509,34.7886443 291.149776,36.3190372 L291.157569,36.3372872 Z M288.845712,30.4978085 C288.845712,26.0526297 286.731273,23.8298839 282.499796,23.8298839 L273.190028,23.8298839 L273.190028,37.2351873 L281.951704,37.2351873 C286.544246,37.2351873 288.840517,34.9794872 288.83792,30.4686085 L288.845712,30.4978085 Z M308.364015,40.5415659 L297.056699,20.5889967 L301.238821,20.5889967 L310.390136,37.0855372 L319.544049,20.5889967 L323.723574,20.5889967 L312.408465,40.5415659 L312.408465,52.3957235 L308.364015,52.3957235 L308.364015,40.5415659 Z M334.290576,20.5889967 L348.473426,20.5889967 C353.528339,20.5889967 357.357189,21.8651671 359.965171,24.4174297 C362.570555,26.9698226 363.874546,31.061212 363.877144,36.6913372 C363.877144,42.0440624 362.573153,46.0027483 359.965171,48.5673948 C357.354591,51.1317806 353.525741,52.4079771 348.473426,52.3958109 L334.290576,52.3958109 L334.290576,20.5889967 Z M347.283729,45.2826554 C348.655257,45.333234 350.018993,45.0842518 351.28402,44.5526554 C352.35163,44.0207982 353.182859,43.1103839 353.619255,41.997916 C354.159554,40.7642159 354.429703,38.9955302 354.432322,36.6913372 C354.434898,34.3871443 354.193322,32.562405 353.704975,31.2168585 C353.315337,30.0418192 352.4919,29.061012 351.403509,28.4759691 C350.369668,27.9503691 348.998139,27.6875691 347.294119,27.6875691 L343.553588,27.6875691 L343.553588,45.2680554 L347.283729,45.2826554 Z M369.768481,20.5889967 L379.018505,20.5889967 L379.018505,52.3957235 L369.768481,52.3957235 L369.768481,20.5889967 Z M383.948733,20.5889967 L393.596188,20.5889967 L400.973348,41.614666 L408.363496,20.5889967 L418.057708,20.5889967 L405.90098,52.3957235 L396.113255,52.3957235 L383.948733,20.5889967 Z M421.985266,20.5889967 L445.984414,20.5889967 L445.984414,27.7021691 L431.219704,27.7021691 L431.219704,32.8882978 L444.163503,32.8882978 L444.163503,40.0965266 L431.23529,40.0965266 L431.23529,45.2826554 L446,45.2826554 L446,52.3957235 L421.998254,52.3957235 L421.985266,20.5889967 Z M39.4940693,44.4212554 C39.6722641,44.4212554 39.770453,44.3920554 39.8577321,44.3847554 C43.4213679,43.9394553 46.1994921,40.4286766 46.1994921,36.1657372 C46.1994921,31.9030585 43.450461,28.4321691 39.9122815,27.9540191 C39.8250025,27.9540191 39.6977205,27.9321191 39.5486187,27.9248191 C39.399517,27.9175191 39.0285809,27.9248191 38.7594704,27.9029191 L29.6686793,27.9029191 L29.6686793,44.4285554 L38.7812902,44.4285554 C38.9631216,44.4249054 39.3195111,44.4322054 39.4940693,44.4212554 Z M19.0871824,45.0636554 L19.0871824,17.2240094 L38.7885634,17.2240094 C44.0175152,17.2240094 45.6976374,18.3408052 45.6976374,18.3408052 L57.562916,6.84437372 C50.5509774,1.79438997 41.9781461,-0.587944252 33.3772608,0.123294773 C24.7760897,0.834544225 16.7074249,4.59297543 10.613683,10.7266703 C4.51994105,16.8603651 0.798415819,24.9693618 0.114433602,33.6042193 C-0.569548614,42.238816 1.82860763,50.8363913 6.88016467,57.8592522 L19.0871824,45.0636554 Z M65.6318146,14.8371179 L54.2320244,26.2862297 C54.2320244,26.2862297 54.7447889,27.3809691 55.5409507,29.4393084 C56.675319,32.2558049 57.0428782,35.3241515 56.6064828,38.3299266 C56.144631,41.979666 55.0972821,46.3372447 51.4648101,50.0709341 C47.8320784,53.8046235 44.282989,54.9650629 39.897735,55.0563129 C35.5122212,55.1475629 25.5597831,55.0563129 25.5597831,55.0563129 L14.7054611,65.8157311 C21.7023856,71.0250634 30.3302859,73.5399135 39.0189698,72.9029885 C47.7076537,72.2658027 55.8796767,68.5190776 62.0481773,62.3443203 C68.2164181,56.1698236 71.9709769,47.977659 72.6286871,39.2585909 C73.2863973,30.5397835 70.8036193,21.873536 65.6318146,14.8371179 Z" id="Shape"></path>
        </g>
    </g>
</svg>